<svg width="1363" height="163" viewBox="0 0 1363 163" fill="none" xmlns="http://www.w3.org/2000/svg">
<path d="M0 15C0 6.71573 6.71573 0 15 0H37V163H15C6.71573 163 0 156.284 0 148V15Z" fill="#424242"/>
<rect width="1097" height="163" transform="translate(37)" fill="#F0F0F0"/>
<path d="M104.414 55.3398H107.918C107.848 56.4883 107.531 57.5078 106.969 58.3984C106.414 59.2891 105.637 59.9844 104.637 60.4844C103.645 60.9844 102.449 61.2344 101.051 61.2344C99.957 61.2344 98.9766 61.0469 98.1094 60.6719C97.2422 60.2891 96.5 59.7422 95.8828 59.0312C95.2734 58.3203 94.8086 57.4609 94.4883 56.4531C94.168 55.4453 94.0078 54.3164 94.0078 53.0664V51.8828C94.0078 50.6328 94.1719 49.5039 94.5 48.4961C94.8359 47.4805 95.3125 46.6172 95.9297 45.9062C96.5547 45.1953 97.3008 44.6484 98.168 44.2656C99.0352 43.8828 100.004 43.6914 101.074 43.6914C102.496 43.6914 103.695 43.9492 104.672 44.4648C105.656 44.9805 106.418 45.6914 106.957 46.5977C107.504 47.5039 107.832 48.5352 107.941 49.6914H104.426C104.387 49.0039 104.25 48.4219 104.016 47.9453C103.781 47.4609 103.426 47.0977 102.949 46.8555C102.48 46.6055 101.855 46.4805 101.074 46.4805C100.488 46.4805 99.9766 46.5898 99.5391 46.8086C99.1016 47.0273 98.7344 47.3594 98.4375 47.8047C98.1406 48.25 97.918 48.8125 97.7695 49.4922C97.6289 50.1641 97.5586 50.9531 97.5586 51.8594V53.0664C97.5586 53.9492 97.625 54.7266 97.7578 55.3984C97.8906 56.0625 98.0938 56.625 98.3672 57.0859C98.6484 57.5391 99.0078 57.8828 99.4453 58.1172C99.8906 58.3438 100.426 58.457 101.051 58.457C101.785 58.457 102.391 58.3398 102.867 58.1055C103.344 57.8711 103.707 57.5234 103.957 57.0625C104.215 56.6016 104.367 56.0273 104.414 55.3398ZM109.477 54.7891V54.543C109.477 53.6133 109.609 52.7578 109.875 51.9766C110.141 51.1875 110.527 50.5039 111.035 49.9258C111.543 49.3477 112.168 48.8984 112.91 48.5781C113.652 48.25 114.504 48.0859 115.465 48.0859C116.426 48.0859 117.281 48.25 118.031 48.5781C118.781 48.8984 119.41 49.3477 119.918 49.9258C120.434 50.5039 120.824 51.1875 121.09 51.9766C121.355 52.7578 121.488 53.6133 121.488 54.543V54.7891C121.488 55.7109 121.355 56.5664 121.09 57.3555C120.824 58.1367 120.434 58.8203 119.918 59.4062C119.41 59.9844 118.785 60.4336 118.043 60.7539C117.301 61.0742 116.449 61.2344 115.488 61.2344C114.527 61.2344 113.672 61.0742 112.922 60.7539C112.18 60.4336 111.551 59.9844 111.035 59.4062C110.527 58.8203 110.141 58.1367 109.875 57.3555C109.609 56.5664 109.477 55.7109 109.477 54.7891ZM112.852 54.543V54.7891C112.852 55.3203 112.898 55.8164 112.992 56.2773C113.086 56.7383 113.234 57.1445 113.438 57.4961C113.648 57.8398 113.922 58.1094 114.258 58.3047C114.594 58.5 115.004 58.5977 115.488 58.5977C115.957 58.5977 116.359 58.5 116.695 58.3047C117.031 58.1094 117.301 57.8398 117.504 57.4961C117.707 57.1445 117.855 56.7383 117.949 56.2773C118.051 55.8164 118.102 55.3203 118.102 54.7891V54.543C118.102 54.0273 118.051 53.543 117.949 53.0898C117.855 52.6289 117.703 52.2227 117.492 51.8711C117.289 51.5117 117.02 51.2305 116.684 51.0273C116.348 50.8242 115.941 50.7227 115.465 50.7227C114.988 50.7227 114.582 50.8242 114.246 51.0273C113.918 51.2305 113.648 51.5117 113.438 51.8711C113.234 52.2227 113.086 52.6289 112.992 53.0898C112.898 53.543 112.852 54.0273 112.852 54.543ZM131.051 58.2344V43H134.449V61H131.391L131.051 58.2344ZM123.035 54.8125V54.5664C123.035 53.5977 123.145 52.7188 123.363 51.9297C123.582 51.1328 123.902 50.4492 124.324 49.8789C124.746 49.3086 125.266 48.8672 125.883 48.5547C126.5 48.2422 127.203 48.0859 127.992 48.0859C128.734 48.0859 129.383 48.2422 129.938 48.5547C130.5 48.8672 130.977 49.3125 131.367 49.8906C131.766 50.4609 132.086 51.1367 132.328 51.918C132.57 52.6914 132.746 53.5391 132.855 54.4609V55C132.746 55.8828 132.57 56.7031 132.328 57.4609C132.086 58.2188 131.766 58.8828 131.367 59.4531C130.977 60.0156 130.5 60.4531 129.938 60.7656C129.375 61.0781 128.719 61.2344 127.969 61.2344C127.18 61.2344 126.477 61.0742 125.859 60.7539C125.25 60.4336 124.734 59.9844 124.312 59.4062C123.898 58.8281 123.582 58.1484 123.363 57.3672C123.145 56.5859 123.035 55.7344 123.035 54.8125ZM126.41 54.5664V54.8125C126.41 55.3359 126.449 55.8242 126.527 56.2773C126.613 56.7305 126.75 57.1328 126.938 57.4844C127.133 57.8281 127.383 58.0977 127.688 58.293C128 58.4805 128.379 58.5742 128.824 58.5742C129.402 58.5742 129.879 58.4453 130.254 58.1875C130.629 57.9219 130.914 57.5586 131.109 57.0977C131.312 56.6367 131.43 56.1055 131.461 55.5039V53.9688C131.438 53.4766 131.367 53.0352 131.25 52.6445C131.141 52.2461 130.977 51.9062 130.758 51.625C130.547 51.3438 130.281 51.125 129.961 50.9688C129.648 50.8125 129.277 50.7344 128.848 50.7344C128.41 50.7344 128.035 50.8359 127.723 51.0391C127.41 51.2344 127.156 51.5039 126.961 51.8477C126.773 52.1914 126.633 52.5977 126.539 53.0664C126.453 53.5273 126.41 54.0273 126.41 54.5664ZM142.922 61.2344C141.938 61.2344 141.055 61.0781 140.273 60.7656C139.492 60.4453 138.828 60.0039 138.281 59.4414C137.742 58.8789 137.328 58.2266 137.039 57.4844C136.75 56.7344 136.605 55.9375 136.605 55.0938V54.625C136.605 53.6641 136.742 52.7852 137.016 51.9883C137.289 51.1914 137.68 50.5 138.188 49.9141C138.703 49.3281 139.328 48.8789 140.062 48.5664C140.797 48.2461 141.625 48.0859 142.547 48.0859C143.445 48.0859 144.242 48.2344 144.938 48.5312C145.633 48.8281 146.215 49.25 146.684 49.7969C147.16 50.3438 147.52 51 147.762 51.7656C148.004 52.5234 148.125 53.3672 148.125 54.2969V55.7031H138.047V53.4531H144.809V53.1953C144.809 52.7266 144.723 52.3086 144.551 51.9414C144.387 51.5664 144.137 51.2695 143.801 51.0508C143.465 50.832 143.035 50.7227 142.512 50.7227C142.066 50.7227 141.684 50.8203 141.363 51.0156C141.043 51.2109 140.781 51.4844 140.578 51.8359C140.383 52.1875 140.234 52.6016 140.133 53.0781C140.039 53.5469 139.992 54.0625 139.992 54.625V55.0938C139.992 55.6016 140.062 56.0703 140.203 56.5C140.352 56.9297 140.559 57.3008 140.824 57.6133C141.098 57.9258 141.426 58.168 141.809 58.3398C142.199 58.5117 142.641 58.5977 143.133 58.5977C143.742 58.5977 144.309 58.4805 144.832 58.2461C145.363 58.0039 145.82 57.6406 146.203 57.1562L147.844 58.9375C147.578 59.3203 147.215 59.6875 146.754 60.0391C146.301 60.3906 145.754 60.6797 145.113 60.9062C144.473 61.125 143.742 61.2344 142.922 61.2344ZM156.703 52.3516V55H150.082V52.3516H156.703ZM171.176 58.2578V61H162.094V58.2578H171.176ZM163.242 43.9375V61H159.727V43.9375H163.242ZM169.992 50.8867V53.5586H162.094V50.8867H169.992ZM171.164 43.9375V46.6914H162.094V43.9375H171.164ZM178.02 58.5977C178.434 58.5977 178.801 58.5195 179.121 58.3633C179.441 58.1992 179.691 57.9727 179.871 57.6836C180.059 57.3867 180.156 57.0391 180.164 56.6406H183.34C183.332 57.5312 183.094 58.3242 182.625 59.0195C182.156 59.707 181.527 60.25 180.738 60.6484C179.949 61.0391 179.066 61.2344 178.09 61.2344C177.105 61.2344 176.246 61.0703 175.512 60.7422C174.785 60.4141 174.18 59.9609 173.695 59.3828C173.211 58.7969 172.848 58.1172 172.605 57.3438C172.363 56.5625 172.242 55.7266 172.242 54.8359V54.4961C172.242 53.5977 172.363 52.7617 172.605 51.9883C172.848 51.207 173.211 50.5273 173.695 49.9492C174.18 49.3633 174.785 48.9062 175.512 48.5781C176.238 48.25 177.09 48.0859 178.066 48.0859C179.105 48.0859 180.016 48.2852 180.797 48.6836C181.586 49.082 182.203 49.6523 182.648 50.3945C183.102 51.1289 183.332 52 183.34 53.0078H180.164C180.156 52.5859 180.066 52.2031 179.895 51.8594C179.73 51.5156 179.488 51.2422 179.168 51.0391C178.855 50.8281 178.469 50.7227 178.008 50.7227C177.516 50.7227 177.113 50.8281 176.801 51.0391C176.488 51.2422 176.246 51.5234 176.074 51.8828C175.902 52.2344 175.781 52.6367 175.711 53.0898C175.648 53.5352 175.617 54.0039 175.617 54.4961V54.8359C175.617 55.3281 175.648 55.8008 175.711 56.2539C175.773 56.707 175.891 57.1094 176.062 57.4609C176.242 57.8125 176.488 58.0898 176.801 58.293C177.113 58.4961 177.52 58.5977 178.02 58.5977ZM188.59 43V61H185.215V43H188.59ZM188.109 54.2148H187.184C187.191 53.332 187.309 52.5195 187.535 51.7773C187.762 51.0273 188.086 50.3789 188.508 49.832C188.93 49.2773 189.434 48.8477 190.02 48.543C190.613 48.2383 191.27 48.0859 191.988 48.0859C192.613 48.0859 193.18 48.1758 193.688 48.3555C194.203 48.5273 194.645 48.8086 195.012 49.1992C195.387 49.582 195.676 50.0859 195.879 50.7109C196.082 51.3359 196.184 52.0938 196.184 52.9844V61H192.785V52.9609C192.785 52.3984 192.703 51.957 192.539 51.6367C192.383 51.3086 192.152 51.0781 191.848 50.9453C191.551 50.8047 191.184 50.7344 190.746 50.7344C190.262 50.7344 189.848 50.8242 189.504 51.0039C189.168 51.1836 188.898 51.4336 188.695 51.7539C188.492 52.0664 188.344 52.4336 188.25 52.8555C188.156 53.2773 188.109 53.7305 188.109 54.2148ZM198.211 54.7891V54.543C198.211 53.6133 198.344 52.7578 198.609 51.9766C198.875 51.1875 199.262 50.5039 199.77 49.9258C200.277 49.3477 200.902 48.8984 201.645 48.5781C202.387 48.25 203.238 48.0859 204.199 48.0859C205.16 48.0859 206.016 48.25 206.766 48.5781C207.516 48.8984 208.145 49.3477 208.652 49.9258C209.168 50.5039 209.559 51.1875 209.824 51.9766C210.09 52.7578 210.223 53.6133 210.223 54.543V54.7891C210.223 55.7109 210.09 56.5664 209.824 57.3555C209.559 58.1367 209.168 58.8203 208.652 59.4062C208.145 59.9844 207.52 60.4336 206.777 60.7539C206.035 61.0742 205.184 61.2344 204.223 61.2344C203.262 61.2344 202.406 61.0742 201.656 60.7539C200.914 60.4336 200.285 59.9844 199.77 59.4062C199.262 58.8203 198.875 58.1367 198.609 57.3555C198.344 56.5664 198.211 55.7109 198.211 54.7891ZM201.586 54.543V54.7891C201.586 55.3203 201.633 55.8164 201.727 56.2773C201.82 56.7383 201.969 57.1445 202.172 57.4961C202.383 57.8398 202.656 58.1094 202.992 58.3047C203.328 58.5 203.738 58.5977 204.223 58.5977C204.691 58.5977 205.094 58.5 205.43 58.3047C205.766 58.1094 206.035 57.8398 206.238 57.4961C206.441 57.1445 206.59 56.7383 206.684 56.2773C206.785 55.8164 206.836 55.3203 206.836 54.7891V54.543C206.836 54.0273 206.785 53.543 206.684 53.0898C206.59 52.6289 206.438 52.2227 206.227 51.8711C206.023 51.5117 205.754 51.2305 205.418 51.0273C205.082 50.8242 204.676 50.7227 204.199 50.7227C203.723 50.7227 203.316 50.8242 202.98 51.0273C202.652 51.2305 202.383 51.5117 202.172 51.8711C201.969 52.2227 201.82 52.6289 201.727 53.0898C201.633 53.543 201.586 54.0273 201.586 54.543Z" fill="#888888"/>
<path d="M114.117 84.875H122.344V107.164C122.344 109.82 121.789 112.07 120.68 113.914C119.57 115.742 118.016 117.125 116.016 118.062C114.016 119 111.664 119.469 108.961 119.469C106.289 119.469 103.938 119 101.906 118.062C99.8906 117.125 98.3125 115.742 97.1719 113.914C96.0469 112.07 95.4844 109.82 95.4844 107.164V84.875H103.734V107.164C103.734 108.57 103.938 109.719 104.344 110.609C104.75 111.484 105.344 112.125 106.125 112.531C106.906 112.938 107.852 113.141 108.961 113.141C110.086 113.141 111.031 112.938 111.797 112.531C112.562 112.125 113.141 111.484 113.531 110.609C113.922 109.719 114.117 108.57 114.117 107.164V84.875ZM134.906 99.0547V119H127.008V93.6406H134.414L134.906 99.0547ZM133.969 105.453L132.117 105.5C132.117 103.562 132.352 101.836 132.82 100.32C133.289 98.7891 133.953 97.4922 134.812 96.4297C135.672 95.3672 136.695 94.5625 137.883 94.0156C139.086 93.4531 140.422 93.1719 141.891 93.1719C143.062 93.1719 144.133 93.3438 145.102 93.6875C146.086 94.0312 146.93 94.5859 147.633 95.3516C148.352 96.1172 148.898 97.1328 149.273 98.3984C149.664 99.6484 149.859 101.195 149.859 103.039V119H141.914V103.016C141.914 102 141.773 101.227 141.492 100.695C141.211 100.148 140.805 99.7734 140.273 99.5703C139.742 99.3672 139.094 99.2656 138.328 99.2656C137.516 99.2656 136.828 99.4219 136.266 99.7344C135.703 100.047 135.25 100.484 134.906 101.047C134.578 101.594 134.336 102.242 134.18 102.992C134.039 103.742 133.969 104.562 133.969 105.453ZM162.586 93.6406V119H154.664V93.6406H162.586ZM154.195 87.1016C154.195 85.9766 154.602 85.0547 155.414 84.3359C156.227 83.6172 157.281 83.2578 158.578 83.2578C159.875 83.2578 160.93 83.6172 161.742 84.3359C162.555 85.0547 162.961 85.9766 162.961 87.1016C162.961 88.2266 162.555 89.1484 161.742 89.8672C160.93 90.5859 159.875 90.9453 158.578 90.9453C157.281 90.9453 156.227 90.5859 155.414 89.8672C154.602 89.1484 154.195 88.2266 154.195 87.1016ZM180.82 93.6406V99.125H165.539V93.6406H180.82ZM168.75 87.3359H176.648V110.727C176.648 111.398 176.727 111.922 176.883 112.297C177.039 112.656 177.305 112.914 177.68 113.07C178.07 113.211 178.586 113.281 179.227 113.281C179.68 113.281 180.055 113.273 180.352 113.258C180.648 113.227 180.93 113.188 181.195 113.141V118.789C180.523 119.008 179.82 119.172 179.086 119.281C178.352 119.406 177.57 119.469 176.742 119.469C175.055 119.469 173.609 119.203 172.406 118.672C171.219 118.141 170.312 117.305 169.688 116.164C169.062 115.023 168.75 113.539 168.75 111.711V87.3359ZM211.406 84.875V119H203.18V84.875H211.406ZM221.672 84.875V91.2266H193.148V84.875H221.672ZM234.961 119.469C232.898 119.469 231.055 119.148 229.43 118.508C227.805 117.852 226.43 116.953 225.305 115.812C224.195 114.672 223.344 113.359 222.75 111.875C222.172 110.391 221.883 108.82 221.883 107.164V106.273C221.883 104.414 222.141 102.695 222.656 101.117C223.172 99.5234 223.938 98.1328 224.953 96.9453C225.969 95.7578 227.242 94.8359 228.773 94.1797C230.305 93.5078 232.086 93.1719 234.117 93.1719C235.914 93.1719 237.523 93.4609 238.945 94.0391C240.367 94.6172 241.57 95.4453 242.555 96.5234C243.555 97.6016 244.312 98.9062 244.828 100.438C245.359 101.969 245.625 103.688 245.625 105.594V108.805H224.906V103.859H237.914V103.25C237.93 102.406 237.781 101.688 237.469 101.094C237.172 100.5 236.734 100.047 236.156 99.7344C235.578 99.4219 234.875 99.2656 234.047 99.2656C233.188 99.2656 232.477 99.4531 231.914 99.8281C231.367 100.203 230.938 100.719 230.625 101.375C230.328 102.016 230.117 102.758 229.992 103.602C229.867 104.445 229.805 105.336 229.805 106.273V107.164C229.805 108.102 229.93 108.953 230.18 109.719C230.445 110.484 230.82 111.141 231.305 111.688C231.805 112.219 232.398 112.633 233.086 112.93C233.789 113.227 234.586 113.375 235.477 113.375C236.555 113.375 237.617 113.172 238.664 112.766C239.711 112.359 240.609 111.688 241.359 110.75L244.945 115.016C244.43 115.75 243.695 116.461 242.742 117.148C241.805 117.836 240.68 118.398 239.367 118.836C238.055 119.258 236.586 119.469 234.961 119.469ZM262.125 111.875C262.125 111.438 261.977 111.062 261.68 110.75C261.398 110.422 260.898 110.125 260.18 109.859C259.461 109.578 258.453 109.297 257.156 109.016C255.922 108.75 254.758 108.398 253.664 107.961C252.586 107.523 251.641 106.992 250.828 106.367C250.016 105.742 249.375 105 248.906 104.141C248.453 103.281 248.227 102.297 248.227 101.188C248.227 100.109 248.453 99.0938 248.906 98.1406C249.375 97.1719 250.055 96.3203 250.945 95.5859C251.852 94.8359 252.953 94.25 254.25 93.8281C255.547 93.3906 257.023 93.1719 258.68 93.1719C260.961 93.1719 262.93 93.5234 264.586 94.2266C266.242 94.9141 267.516 95.8828 268.406 97.1328C269.312 98.3672 269.766 99.7969 269.766 101.422H261.867C261.867 100.781 261.758 100.234 261.539 99.7812C261.336 99.3281 261 98.9844 260.531 98.75C260.062 98.5 259.438 98.375 258.656 98.375C258.109 98.375 257.609 98.4766 257.156 98.6797C256.719 98.8828 256.367 99.1641 256.102 99.5234C255.836 99.8828 255.703 100.305 255.703 100.789C255.703 101.133 255.781 101.445 255.938 101.727C256.109 101.992 256.367 102.242 256.711 102.477C257.055 102.695 257.492 102.898 258.023 103.086C258.555 103.258 259.195 103.414 259.945 103.555C261.648 103.867 263.242 104.312 264.727 104.891C266.211 105.469 267.414 106.289 268.336 107.352C269.273 108.414 269.742 109.844 269.742 111.641C269.742 112.766 269.484 113.805 268.969 114.758C268.453 115.695 267.711 116.523 266.742 117.242C265.773 117.945 264.609 118.492 263.25 118.883C261.891 119.273 260.359 119.469 258.656 119.469C256.234 119.469 254.188 119.039 252.516 118.18C250.844 117.305 249.578 116.211 248.719 114.898C247.875 113.57 247.453 112.227 247.453 110.867H254.812C254.844 111.648 255.031 112.289 255.375 112.789C255.734 113.289 256.211 113.656 256.805 113.891C257.398 114.125 258.086 114.242 258.867 114.242C259.586 114.242 260.18 114.141 260.648 113.938C261.133 113.734 261.5 113.461 261.75 113.117C262 112.758 262.125 112.344 262.125 111.875ZM286.805 93.6406V99.125H271.523V93.6406H286.805ZM274.734 87.3359H282.633V110.727C282.633 111.398 282.711 111.922 282.867 112.297C283.023 112.656 283.289 112.914 283.664 113.07C284.055 113.211 284.57 113.281 285.211 113.281C285.664 113.281 286.039 113.273 286.336 113.258C286.633 113.227 286.914 113.188 287.18 113.141V118.789C286.508 119.008 285.805 119.172 285.07 119.281C284.336 119.406 283.555 119.469 282.727 119.469C281.039 119.469 279.594 119.203 278.391 118.672C277.203 118.141 276.297 117.305 275.672 116.164C275.047 115.023 274.734 113.539 274.734 111.711V87.3359ZM298.289 93.6406V119H290.367V93.6406H298.289ZM289.898 87.1016C289.898 85.9766 290.305 85.0547 291.117 84.3359C291.93 83.6172 292.984 83.2578 294.281 83.2578C295.578 83.2578 296.633 83.6172 297.445 84.3359C298.258 85.0547 298.664 85.9766 298.664 87.1016C298.664 88.2266 298.258 89.1484 297.445 89.8672C296.633 90.5859 295.578 90.9453 294.281 90.9453C292.984 90.9453 291.93 90.5859 291.117 89.8672C290.305 89.1484 289.898 88.2266 289.898 87.1016ZM310.922 99.0547V119H303.023V93.6406H310.43L310.922 99.0547ZM309.984 105.453L308.133 105.5C308.133 103.562 308.367 101.836 308.836 100.32C309.305 98.7891 309.969 97.4922 310.828 96.4297C311.688 95.3672 312.711 94.5625 313.898 94.0156C315.102 93.4531 316.438 93.1719 317.906 93.1719C319.078 93.1719 320.148 93.3438 321.117 93.6875C322.102 94.0312 322.945 94.5859 323.648 95.3516C324.367 96.1172 324.914 97.1328 325.289 98.3984C325.68 99.6484 325.875 101.195 325.875 103.039V119H317.93V103.016C317.93 102 317.789 101.227 317.508 100.695C317.227 100.148 316.82 99.7734 316.289 99.5703C315.758 99.3672 315.109 99.2656 314.344 99.2656C313.531 99.2656 312.844 99.4219 312.281 99.7344C311.719 100.047 311.266 100.484 310.922 101.047C310.594 101.594 310.352 102.242 310.195 102.992C310.055 103.742 309.984 104.562 309.984 105.453ZM346.195 93.6406H353.367V118.016C353.367 120.359 352.828 122.344 351.75 123.969C350.672 125.609 349.164 126.852 347.227 127.695C345.305 128.555 343.055 128.984 340.477 128.984C339.336 128.984 338.172 128.836 336.984 128.539C335.797 128.258 334.688 127.836 333.656 127.273C332.625 126.711 331.758 126.016 331.055 125.188L334.359 120.547C335 121.266 335.805 121.875 336.773 122.375C337.742 122.891 338.883 123.148 340.195 123.148C341.336 123.148 342.289 122.945 343.055 122.539C343.836 122.133 344.43 121.539 344.836 120.758C345.242 119.992 345.445 119.062 345.445 117.969V99.6406L346.195 93.6406ZM329.344 106.625V106.133C329.344 104.211 329.578 102.461 330.047 100.883C330.531 99.2891 331.219 97.9219 332.109 96.7812C333.016 95.625 334.109 94.7344 335.391 94.1094C336.672 93.4844 338.117 93.1719 339.727 93.1719C341.461 93.1719 342.883 93.5078 343.992 94.1797C345.117 94.8359 346.016 95.7578 346.688 96.9453C347.375 98.1328 347.906 99.5234 348.281 101.117C348.672 102.695 349 104.398 349.266 106.227V106.812C349 108.531 348.633 110.156 348.164 111.688C347.711 113.203 347.117 114.547 346.383 115.719C345.648 116.891 344.727 117.812 343.617 118.484C342.523 119.141 341.211 119.469 339.68 119.469C338.086 119.469 336.648 119.148 335.367 118.508C334.102 117.867 333.016 116.969 332.109 115.812C331.219 114.656 330.531 113.297 330.047 111.734C329.578 110.172 329.344 108.469 329.344 106.625ZM337.242 106.133V106.625C337.242 107.578 337.328 108.461 337.5 109.273C337.688 110.086 337.969 110.805 338.344 111.43C338.719 112.039 339.18 112.516 339.727 112.859C340.289 113.203 340.945 113.375 341.695 113.375C342.836 113.375 343.758 113.133 344.461 112.648C345.164 112.164 345.672 111.477 345.984 110.586C346.297 109.695 346.43 108.648 346.383 107.445V105.594C346.414 104.562 346.344 103.656 346.172 102.875C346 102.078 345.727 101.414 345.352 100.883C344.992 100.352 344.508 99.9531 343.898 99.6875C343.305 99.4062 342.586 99.2656 341.742 99.2656C341.008 99.2656 340.359 99.4375 339.797 99.7812C339.234 100.125 338.766 100.609 338.391 101.234C338.016 101.844 337.727 102.57 337.523 103.414C337.336 104.242 337.242 105.148 337.242 106.133Z" fill="black"/>
<path d="M1134 0H1348C1356.28 0 1363 6.71573 1363 15V148C1363 156.284 1356.28 163 1348 163H1134V0Z" fill="#73C405"/>
<path d="M1210.62 43.625H1286.38V119.375H1210.62V43.625Z" fill="white" fill-opacity="0.01"/>
<path d="M1276.91 72.0312V105.172C1276.91 107.787 1274.79 109.906 1272.17 109.906H1224.83C1222.21 109.906 1220.09 107.787 1220.09 105.172V57.8281C1220.09 55.2134 1222.21 53.0938 1224.83 53.0938H1261.12" stroke="white" stroke-width="7.24" stroke-linecap="round" stroke-linejoin="round"/>
<path d="M1232.72 75.1875L1248.5 87.8125L1276.91 53.0938" stroke="white" stroke-width="7.24" stroke-linecap="round" stroke-linejoin="round"/>
</svg>
