<svg width="1363" height="163" viewBox="0 0 1363 163" fill="none" xmlns="http://www.w3.org/2000/svg">
<path d="M0 15C0 6.71573 6.71573 0 15 0H37V163H15C6.71573 163 0 156.284 0 148V15Z" fill="#424242"/>
<rect width="1097" height="163" transform="translate(37)" fill="#F0F0F0"/>
<path d="M101.906 53.9219L94.3945 51.2383V48.0859L104.602 52.375V54.6367L101.906 53.9219ZM94.3945 56.1719L101.918 53.4297L104.602 52.7852V55.0352L94.3945 59.3242V56.1719ZM122.789 55.3398H126.293C126.223 56.4883 125.906 57.5078 125.344 58.3984C124.789 59.2891 124.012 59.9844 123.012 60.4844C122.02 60.9844 120.824 61.2344 119.426 61.2344C118.332 61.2344 117.352 61.0469 116.484 60.6719C115.617 60.2891 114.875 59.7422 114.258 59.0312C113.648 58.3203 113.184 57.4609 112.863 56.4531C112.543 55.4453 112.383 54.3164 112.383 53.0664V51.8828C112.383 50.6328 112.547 49.5039 112.875 48.4961C113.211 47.4805 113.688 46.6172 114.305 45.9062C114.93 45.1953 115.676 44.6484 116.543 44.2656C117.41 43.8828 118.379 43.6914 119.449 43.6914C120.871 43.6914 122.07 43.9492 123.047 44.4648C124.031 44.9805 124.793 45.6914 125.332 46.5977C125.879 47.5039 126.207 48.5352 126.316 49.6914H122.801C122.762 49.0039 122.625 48.4219 122.391 47.9453C122.156 47.4609 121.801 47.0977 121.324 46.8555C120.855 46.6055 120.23 46.4805 119.449 46.4805C118.863 46.4805 118.352 46.5898 117.914 46.8086C117.477 47.0273 117.109 47.3594 116.812 47.8047C116.516 48.25 116.293 48.8125 116.145 49.4922C116.004 50.1641 115.934 50.9531 115.934 51.8594V53.0664C115.934 53.9492 116 54.7266 116.133 55.3984C116.266 56.0625 116.469 56.625 116.742 57.0859C117.023 57.5391 117.383 57.8828 117.82 58.1172C118.266 58.3438 118.801 58.457 119.426 58.457C120.16 58.457 120.766 58.3398 121.242 58.1055C121.719 57.8711 122.082 57.5234 122.332 57.0625C122.59 56.6016 122.742 56.0273 122.789 55.3398ZM127.852 54.7891V54.543C127.852 53.6133 127.984 52.7578 128.25 51.9766C128.516 51.1875 128.902 50.5039 129.41 49.9258C129.918 49.3477 130.543 48.8984 131.285 48.5781C132.027 48.25 132.879 48.0859 133.84 48.0859C134.801 48.0859 135.656 48.25 136.406 48.5781C137.156 48.8984 137.785 49.3477 138.293 49.9258C138.809 50.5039 139.199 51.1875 139.465 51.9766C139.73 52.7578 139.863 53.6133 139.863 54.543V54.7891C139.863 55.7109 139.73 56.5664 139.465 57.3555C139.199 58.1367 138.809 58.8203 138.293 59.4062C137.785 59.9844 137.16 60.4336 136.418 60.7539C135.676 61.0742 134.824 61.2344 133.863 61.2344C132.902 61.2344 132.047 61.0742 131.297 60.7539C130.555 60.4336 129.926 59.9844 129.41 59.4062C128.902 58.8203 128.516 58.1367 128.25 57.3555C127.984 56.5664 127.852 55.7109 127.852 54.7891ZM131.227 54.543V54.7891C131.227 55.3203 131.273 55.8164 131.367 56.2773C131.461 56.7383 131.609 57.1445 131.812 57.4961C132.023 57.8398 132.297 58.1094 132.633 58.3047C132.969 58.5 133.379 58.5977 133.863 58.5977C134.332 58.5977 134.734 58.5 135.07 58.3047C135.406 58.1094 135.676 57.8398 135.879 57.4961C136.082 57.1445 136.23 56.7383 136.324 56.2773C136.426 55.8164 136.477 55.3203 136.477 54.7891V54.543C136.477 54.0273 136.426 53.543 136.324 53.0898C136.23 52.6289 136.078 52.2227 135.867 51.8711C135.664 51.5117 135.395 51.2305 135.059 51.0273C134.723 50.8242 134.316 50.7227 133.84 50.7227C133.363 50.7227 132.957 50.8242 132.621 51.0273C132.293 51.2305 132.023 51.5117 131.812 51.8711C131.609 52.2227 131.461 52.6289 131.367 53.0898C131.273 53.543 131.227 54.0273 131.227 54.543ZM149.426 58.2344V43H152.824V61H149.766L149.426 58.2344ZM141.41 54.8125V54.5664C141.41 53.5977 141.52 52.7188 141.738 51.9297C141.957 51.1328 142.277 50.4492 142.699 49.8789C143.121 49.3086 143.641 48.8672 144.258 48.5547C144.875 48.2422 145.578 48.0859 146.367 48.0859C147.109 48.0859 147.758 48.2422 148.312 48.5547C148.875 48.8672 149.352 49.3125 149.742 49.8906C150.141 50.4609 150.461 51.1367 150.703 51.918C150.945 52.6914 151.121 53.5391 151.23 54.4609V55C151.121 55.8828 150.945 56.7031 150.703 57.4609C150.461 58.2188 150.141 58.8828 149.742 59.4531C149.352 60.0156 148.875 60.4531 148.312 60.7656C147.75 61.0781 147.094 61.2344 146.344 61.2344C145.555 61.2344 144.852 61.0742 144.234 60.7539C143.625 60.4336 143.109 59.9844 142.688 59.4062C142.273 58.8281 141.957 58.1484 141.738 57.3672C141.52 56.5859 141.41 55.7344 141.41 54.8125ZM144.785 54.5664V54.8125C144.785 55.3359 144.824 55.8242 144.902 56.2773C144.988 56.7305 145.125 57.1328 145.312 57.4844C145.508 57.8281 145.758 58.0977 146.062 58.293C146.375 58.4805 146.754 58.5742 147.199 58.5742C147.777 58.5742 148.254 58.4453 148.629 58.1875C149.004 57.9219 149.289 57.5586 149.484 57.0977C149.688 56.6367 149.805 56.1055 149.836 55.5039V53.9688C149.812 53.4766 149.742 53.0352 149.625 52.6445C149.516 52.2461 149.352 51.9062 149.133 51.625C148.922 51.3438 148.656 51.125 148.336 50.9688C148.023 50.8125 147.652 50.7344 147.223 50.7344C146.785 50.7344 146.41 50.8359 146.098 51.0391C145.785 51.2344 145.531 51.5039 145.336 51.8477C145.148 52.1914 145.008 52.5977 144.914 53.0664C144.828 53.5273 144.785 54.0273 144.785 54.5664ZM161.297 61.2344C160.312 61.2344 159.43 61.0781 158.648 60.7656C157.867 60.4453 157.203 60.0039 156.656 59.4414C156.117 58.8789 155.703 58.2266 155.414 57.4844C155.125 56.7344 154.98 55.9375 154.98 55.0938V54.625C154.98 53.6641 155.117 52.7852 155.391 51.9883C155.664 51.1914 156.055 50.5 156.562 49.9141C157.078 49.3281 157.703 48.8789 158.438 48.5664C159.172 48.2461 160 48.0859 160.922 48.0859C161.82 48.0859 162.617 48.2344 163.312 48.5312C164.008 48.8281 164.59 49.25 165.059 49.7969C165.535 50.3438 165.895 51 166.137 51.7656C166.379 52.5234 166.5 53.3672 166.5 54.2969V55.7031H156.422V53.4531H163.184V53.1953C163.184 52.7266 163.098 52.3086 162.926 51.9414C162.762 51.5664 162.512 51.2695 162.176 51.0508C161.84 50.832 161.41 50.7227 160.887 50.7227C160.441 50.7227 160.059 50.8203 159.738 51.0156C159.418 51.2109 159.156 51.4844 158.953 51.8359C158.758 52.1875 158.609 52.6016 158.508 53.0781C158.414 53.5469 158.367 54.0625 158.367 54.625V55.0938C158.367 55.6016 158.438 56.0703 158.578 56.5C158.727 56.9297 158.934 57.3008 159.199 57.6133C159.473 57.9258 159.801 58.168 160.184 58.3398C160.574 58.5117 161.016 58.5977 161.508 58.5977C162.117 58.5977 162.684 58.4805 163.207 58.2461C163.738 58.0039 164.195 57.6406 164.578 57.1562L166.219 58.9375C165.953 59.3203 165.59 59.6875 165.129 60.0391C164.676 60.3906 164.129 60.6797 163.488 60.9062C162.848 61.125 162.117 61.2344 161.297 61.2344ZM175.078 52.3516V55H168.457V52.3516H175.078ZM189.551 58.2578V61H180.469V58.2578H189.551ZM181.617 43.9375V61H178.102V43.9375H181.617ZM188.367 50.8867V53.5586H180.469V50.8867H188.367ZM189.539 43.9375V46.6914H180.469V43.9375H189.539ZM196.395 58.5977C196.809 58.5977 197.176 58.5195 197.496 58.3633C197.816 58.1992 198.066 57.9727 198.246 57.6836C198.434 57.3867 198.531 57.0391 198.539 56.6406H201.715C201.707 57.5312 201.469 58.3242 201 59.0195C200.531 59.707 199.902 60.25 199.113 60.6484C198.324 61.0391 197.441 61.2344 196.465 61.2344C195.48 61.2344 194.621 61.0703 193.887 60.7422C193.16 60.4141 192.555 59.9609 192.07 59.3828C191.586 58.7969 191.223 58.1172 190.98 57.3438C190.738 56.5625 190.617 55.7266 190.617 54.8359V54.4961C190.617 53.5977 190.738 52.7617 190.98 51.9883C191.223 51.207 191.586 50.5273 192.07 49.9492C192.555 49.3633 193.16 48.9062 193.887 48.5781C194.613 48.25 195.465 48.0859 196.441 48.0859C197.48 48.0859 198.391 48.2852 199.172 48.6836C199.961 49.082 200.578 49.6523 201.023 50.3945C201.477 51.1289 201.707 52 201.715 53.0078H198.539C198.531 52.5859 198.441 52.2031 198.27 51.8594C198.105 51.5156 197.863 51.2422 197.543 51.0391C197.23 50.8281 196.844 50.7227 196.383 50.7227C195.891 50.7227 195.488 50.8281 195.176 51.0391C194.863 51.2422 194.621 51.5234 194.449 51.8828C194.277 52.2344 194.156 52.6367 194.086 53.0898C194.023 53.5352 193.992 54.0039 193.992 54.4961V54.8359C193.992 55.3281 194.023 55.8008 194.086 56.2539C194.148 56.707 194.266 57.1094 194.438 57.4609C194.617 57.8125 194.863 58.0898 195.176 58.293C195.488 58.4961 195.895 58.5977 196.395 58.5977ZM206.965 43V61H203.59V43H206.965ZM206.484 54.2148H205.559C205.566 53.332 205.684 52.5195 205.91 51.7773C206.137 51.0273 206.461 50.3789 206.883 49.832C207.305 49.2773 207.809 48.8477 208.395 48.543C208.988 48.2383 209.645 48.0859 210.363 48.0859C210.988 48.0859 211.555 48.1758 212.062 48.3555C212.578 48.5273 213.02 48.8086 213.387 49.1992C213.762 49.582 214.051 50.0859 214.254 50.7109C214.457 51.3359 214.559 52.0938 214.559 52.9844V61H211.16V52.9609C211.16 52.3984 211.078 51.957 210.914 51.6367C210.758 51.3086 210.527 51.0781 210.223 50.9453C209.926 50.8047 209.559 50.7344 209.121 50.7344C208.637 50.7344 208.223 50.8242 207.879 51.0039C207.543 51.1836 207.273 51.4336 207.07 51.7539C206.867 52.0664 206.719 52.4336 206.625 52.8555C206.531 53.2773 206.484 53.7305 206.484 54.2148ZM216.586 54.7891V54.543C216.586 53.6133 216.719 52.7578 216.984 51.9766C217.25 51.1875 217.637 50.5039 218.145 49.9258C218.652 49.3477 219.277 48.8984 220.02 48.5781C220.762 48.25 221.613 48.0859 222.574 48.0859C223.535 48.0859 224.391 48.25 225.141 48.5781C225.891 48.8984 226.52 49.3477 227.027 49.9258C227.543 50.5039 227.934 51.1875 228.199 51.9766C228.465 52.7578 228.598 53.6133 228.598 54.543V54.7891C228.598 55.7109 228.465 56.5664 228.199 57.3555C227.934 58.1367 227.543 58.8203 227.027 59.4062C226.52 59.9844 225.895 60.4336 225.152 60.7539C224.41 61.0742 223.559 61.2344 222.598 61.2344C221.637 61.2344 220.781 61.0742 220.031 60.7539C219.289 60.4336 218.66 59.9844 218.145 59.4062C217.637 58.8203 217.25 58.1367 216.984 57.3555C216.719 56.5664 216.586 55.7109 216.586 54.7891ZM219.961 54.543V54.7891C219.961 55.3203 220.008 55.8164 220.102 56.2773C220.195 56.7383 220.344 57.1445 220.547 57.4961C220.758 57.8398 221.031 58.1094 221.367 58.3047C221.703 58.5 222.113 58.5977 222.598 58.5977C223.066 58.5977 223.469 58.5 223.805 58.3047C224.141 58.1094 224.41 57.8398 224.613 57.4961C224.816 57.1445 224.965 56.7383 225.059 56.2773C225.16 55.8164 225.211 55.3203 225.211 54.7891V54.543C225.211 54.0273 225.16 53.543 225.059 53.0898C224.965 52.6289 224.812 52.2227 224.602 51.8711C224.398 51.5117 224.129 51.2305 223.793 51.0273C223.457 50.8242 223.051 50.7227 222.574 50.7227C222.098 50.7227 221.691 50.8242 221.355 51.0273C221.027 51.2305 220.758 51.5117 220.547 51.8711C220.344 52.2227 220.195 52.6289 220.102 53.0898C220.008 53.543 219.961 54.0273 219.961 54.543Z" fill="#888888"/>
<path d="M114.117 84.875H122.344V107.164C122.344 109.82 121.789 112.07 120.68 113.914C119.57 115.742 118.016 117.125 116.016 118.062C114.016 119 111.664 119.469 108.961 119.469C106.289 119.469 103.938 119 101.906 118.062C99.8906 117.125 98.3125 115.742 97.1719 113.914C96.0469 112.07 95.4844 109.82 95.4844 107.164V84.875H103.734V107.164C103.734 108.57 103.938 109.719 104.344 110.609C104.75 111.484 105.344 112.125 106.125 112.531C106.906 112.938 107.852 113.141 108.961 113.141C110.086 113.141 111.031 112.938 111.797 112.531C112.562 112.125 113.141 111.484 113.531 110.609C113.922 109.719 114.117 108.57 114.117 107.164V84.875ZM136.266 84.875V119H128.062V84.875H136.266ZM172.523 84.875H180.75V107.164C180.75 109.82 180.195 112.07 179.086 113.914C177.977 115.742 176.422 117.125 174.422 118.062C172.422 119 170.07 119.469 167.367 119.469C164.695 119.469 162.344 119 160.312 118.062C158.297 117.125 156.719 115.742 155.578 113.914C154.453 112.07 153.891 109.82 153.891 107.164V84.875H162.141V107.164C162.141 108.57 162.344 109.719 162.75 110.609C163.156 111.484 163.75 112.125 164.531 112.531C165.312 112.938 166.258 113.141 167.367 113.141C168.492 113.141 169.438 112.938 170.203 112.531C170.969 112.125 171.547 111.484 171.938 110.609C172.328 109.719 172.523 108.57 172.523 107.164V84.875ZM193.078 84.875L198.656 96.2188L204.234 84.875H213.609L204.094 101.797L213.867 119H204.398L198.656 107.445L192.914 119H183.422L193.219 101.797L183.68 84.875H193.078Z" fill="black"/>
<path d="M1134 0H1348C1356.28 0 1363 6.71573 1363 15V148C1363 156.284 1356.28 163 1348 163H1134V0Z" fill="#73C405"/>
<path d="M1248.5 111.917C1244.51 111.917 1240.55 111.13 1236.86 109.601C1233.17 108.073 1229.82 105.832 1226.99 103.008C1221.29 97.3036 1218.08 89.567 1218.08 81.5C1218.08 73.433 1221.29 65.6964 1226.99 59.9922C1232.7 54.2879 1240.43 51.0833 1248.5 51.0833C1265.23 51.0833 1278.92 63.25 1278.92 78.4583C1278.92 83.2985 1276.99 87.9405 1273.57 91.363C1270.15 94.7856 1265.51 96.7083 1260.67 96.7083H1255.19C1254.28 96.7083 1253.67 97.3167 1253.67 98.2292C1253.67 98.5333 1253.97 98.8375 1253.97 99.1417C1255.19 100.662 1255.8 102.487 1255.8 104.312C1256.1 108.571 1252.76 111.917 1248.5 111.917ZM1248.5 57.1667C1242.05 57.1667 1235.86 59.7303 1231.29 64.2937C1226.73 68.8571 1224.17 75.0464 1224.17 81.5C1224.17 87.9536 1226.73 94.1429 1231.29 98.7063C1235.86 103.27 1242.05 105.833 1248.5 105.833C1249.41 105.833 1250.02 105.225 1250.02 104.312C1250.02 103.704 1249.72 103.4 1249.72 103.096C1248.5 101.575 1247.89 100.054 1247.89 98.2292C1247.89 93.9708 1251.24 90.625 1255.5 90.625H1260.67C1263.89 90.625 1266.99 89.3432 1269.27 87.0615C1271.55 84.7798 1272.83 81.6851 1272.83 78.4583C1272.83 66.5958 1261.88 57.1667 1248.5 57.1667ZM1231.77 75.4167C1234.2 75.4167 1236.33 77.5458 1236.33 79.9792C1236.33 82.4125 1234.2 84.5417 1231.77 84.5417C1229.34 84.5417 1227.21 82.4125 1227.21 79.9792C1227.21 77.5458 1229.34 75.4167 1231.77 75.4167ZM1240.9 63.25C1243.33 63.25 1245.46 65.3792 1245.46 67.8125C1245.46 70.2458 1243.33 72.375 1240.9 72.375C1238.46 72.375 1236.33 70.2458 1236.33 67.8125C1236.33 65.3792 1238.46 63.25 1240.9 63.25ZM1256.1 63.25C1258.54 63.25 1260.67 65.3792 1260.67 67.8125C1260.67 70.2458 1258.54 72.375 1256.1 72.375C1253.67 72.375 1251.54 70.2458 1251.54 67.8125C1251.54 65.3792 1253.67 63.25 1256.1 63.25ZM1265.23 75.4167C1267.66 75.4167 1269.79 77.5458 1269.79 79.9792C1269.79 82.4125 1267.66 84.5417 1265.23 84.5417C1262.8 84.5417 1260.67 82.4125 1260.67 79.9792C1260.67 77.5458 1262.8 75.4167 1265.23 75.4167Z" fill="white"/>
</svg>
