<svg width="1363" height="163" viewBox="0 0 1363 163" fill="none" xmlns="http://www.w3.org/2000/svg">
<path d="M0 15C0 6.71573 6.71573 0 15 0H37V163H15C6.71573 163 0 156.284 0 148V15Z" fill="#424242"/>
<rect width="1097" height="163" transform="translate(37)" fill="#F0F0F0"/>
<path d="M104.414 55.3398H107.918C107.848 56.4883 107.531 57.5078 106.969 58.3984C106.414 59.2891 105.637 59.9844 104.637 60.4844C103.645 60.9844 102.449 61.2344 101.051 61.2344C99.957 61.2344 98.9766 61.0469 98.1094 60.6719C97.2422 60.2891 96.5 59.7422 95.8828 59.0312C95.2734 58.3203 94.8086 57.4609 94.4883 56.4531C94.168 55.4453 94.0078 54.3164 94.0078 53.0664V51.8828C94.0078 50.6328 94.1719 49.5039 94.5 48.4961C94.8359 47.4805 95.3125 46.6172 95.9297 45.9062C96.5547 45.1953 97.3008 44.6484 98.168 44.2656C99.0352 43.8828 100.004 43.6914 101.074 43.6914C102.496 43.6914 103.695 43.9492 104.672 44.4648C105.656 44.9805 106.418 45.6914 106.957 46.5977C107.504 47.5039 107.832 48.5352 107.941 49.6914H104.426C104.387 49.0039 104.25 48.4219 104.016 47.9453C103.781 47.4609 103.426 47.0977 102.949 46.8555C102.48 46.6055 101.855 46.4805 101.074 46.4805C100.488 46.4805 99.9766 46.5898 99.5391 46.8086C99.1016 47.0273 98.7344 47.3594 98.4375 47.8047C98.1406 48.25 97.918 48.8125 97.7695 49.4922C97.6289 50.1641 97.5586 50.9531 97.5586 51.8594V53.0664C97.5586 53.9492 97.625 54.7266 97.7578 55.3984C97.8906 56.0625 98.0938 56.625 98.3672 57.0859C98.6484 57.5391 99.0078 57.8828 99.4453 58.1172C99.8906 58.3438 100.426 58.457 101.051 58.457C101.785 58.457 102.391 58.3398 102.867 58.1055C103.344 57.8711 103.707 57.5234 103.957 57.0625C104.215 56.6016 104.367 56.0273 104.414 55.3398ZM109.477 54.7891V54.543C109.477 53.6133 109.609 52.7578 109.875 51.9766C110.141 51.1875 110.527 50.5039 111.035 49.9258C111.543 49.3477 112.168 48.8984 112.91 48.5781C113.652 48.25 114.504 48.0859 115.465 48.0859C116.426 48.0859 117.281 48.25 118.031 48.5781C118.781 48.8984 119.41 49.3477 119.918 49.9258C120.434 50.5039 120.824 51.1875 121.09 51.9766C121.355 52.7578 121.488 53.6133 121.488 54.543V54.7891C121.488 55.7109 121.355 56.5664 121.09 57.3555C120.824 58.1367 120.434 58.8203 119.918 59.4062C119.41 59.9844 118.785 60.4336 118.043 60.7539C117.301 61.0742 116.449 61.2344 115.488 61.2344C114.527 61.2344 113.672 61.0742 112.922 60.7539C112.18 60.4336 111.551 59.9844 111.035 59.4062C110.527 58.8203 110.141 58.1367 109.875 57.3555C109.609 56.5664 109.477 55.7109 109.477 54.7891ZM112.852 54.543V54.7891C112.852 55.3203 112.898 55.8164 112.992 56.2773C113.086 56.7383 113.234 57.1445 113.438 57.4961C113.648 57.8398 113.922 58.1094 114.258 58.3047C114.594 58.5 115.004 58.5977 115.488 58.5977C115.957 58.5977 116.359 58.5 116.695 58.3047C117.031 58.1094 117.301 57.8398 117.504 57.4961C117.707 57.1445 117.855 56.7383 117.949 56.2773C118.051 55.8164 118.102 55.3203 118.102 54.7891V54.543C118.102 54.0273 118.051 53.543 117.949 53.0898C117.855 52.6289 117.703 52.2227 117.492 51.8711C117.289 51.5117 117.02 51.2305 116.684 51.0273C116.348 50.8242 115.941 50.7227 115.465 50.7227C114.988 50.7227 114.582 50.8242 114.246 51.0273C113.918 51.2305 113.648 51.5117 113.438 51.8711C113.234 52.2227 113.086 52.6289 112.992 53.0898C112.898 53.543 112.852 54.0273 112.852 54.543ZM131.051 58.2344V43H134.449V61H131.391L131.051 58.2344ZM123.035 54.8125V54.5664C123.035 53.5977 123.145 52.7188 123.363 51.9297C123.582 51.1328 123.902 50.4492 124.324 49.8789C124.746 49.3086 125.266 48.8672 125.883 48.5547C126.5 48.2422 127.203 48.0859 127.992 48.0859C128.734 48.0859 129.383 48.2422 129.938 48.5547C130.5 48.8672 130.977 49.3125 131.367 49.8906C131.766 50.4609 132.086 51.1367 132.328 51.918C132.57 52.6914 132.746 53.5391 132.855 54.4609V55C132.746 55.8828 132.57 56.7031 132.328 57.4609C132.086 58.2188 131.766 58.8828 131.367 59.4531C130.977 60.0156 130.5 60.4531 129.938 60.7656C129.375 61.0781 128.719 61.2344 127.969 61.2344C127.18 61.2344 126.477 61.0742 125.859 60.7539C125.25 60.4336 124.734 59.9844 124.312 59.4062C123.898 58.8281 123.582 58.1484 123.363 57.3672C123.145 56.5859 123.035 55.7344 123.035 54.8125ZM126.41 54.5664V54.8125C126.41 55.3359 126.449 55.8242 126.527 56.2773C126.613 56.7305 126.75 57.1328 126.938 57.4844C127.133 57.8281 127.383 58.0977 127.688 58.293C128 58.4805 128.379 58.5742 128.824 58.5742C129.402 58.5742 129.879 58.4453 130.254 58.1875C130.629 57.9219 130.914 57.5586 131.109 57.0977C131.312 56.6367 131.43 56.1055 131.461 55.5039V53.9688C131.438 53.4766 131.367 53.0352 131.25 52.6445C131.141 52.2461 130.977 51.9062 130.758 51.625C130.547 51.3438 130.281 51.125 129.961 50.9688C129.648 50.8125 129.277 50.7344 128.848 50.7344C128.41 50.7344 128.035 50.8359 127.723 51.0391C127.41 51.2344 127.156 51.5039 126.961 51.8477C126.773 52.1914 126.633 52.5977 126.539 53.0664C126.453 53.5273 126.41 54.0273 126.41 54.5664ZM142.922 61.2344C141.938 61.2344 141.055 61.0781 140.273 60.7656C139.492 60.4453 138.828 60.0039 138.281 59.4414C137.742 58.8789 137.328 58.2266 137.039 57.4844C136.75 56.7344 136.605 55.9375 136.605 55.0938V54.625C136.605 53.6641 136.742 52.7852 137.016 51.9883C137.289 51.1914 137.68 50.5 138.188 49.9141C138.703 49.3281 139.328 48.8789 140.062 48.5664C140.797 48.2461 141.625 48.0859 142.547 48.0859C143.445 48.0859 144.242 48.2344 144.938 48.5312C145.633 48.8281 146.215 49.25 146.684 49.7969C147.16 50.3438 147.52 51 147.762 51.7656C148.004 52.5234 148.125 53.3672 148.125 54.2969V55.7031H138.047V53.4531H144.809V53.1953C144.809 52.7266 144.723 52.3086 144.551 51.9414C144.387 51.5664 144.137 51.2695 143.801 51.0508C143.465 50.832 143.035 50.7227 142.512 50.7227C142.066 50.7227 141.684 50.8203 141.363 51.0156C141.043 51.2109 140.781 51.4844 140.578 51.8359C140.383 52.1875 140.234 52.6016 140.133 53.0781C140.039 53.5469 139.992 54.0625 139.992 54.625V55.0938C139.992 55.6016 140.062 56.0703 140.203 56.5C140.352 56.9297 140.559 57.3008 140.824 57.6133C141.098 57.9258 141.426 58.168 141.809 58.3398C142.199 58.5117 142.641 58.5977 143.133 58.5977C143.742 58.5977 144.309 58.4805 144.832 58.2461C145.363 58.0039 145.82 57.6406 146.203 57.1562L147.844 58.9375C147.578 59.3203 147.215 59.6875 146.754 60.0391C146.301 60.3906 145.754 60.6797 145.113 60.9062C144.473 61.125 143.742 61.2344 142.922 61.2344ZM156.703 52.3516V55H150.082V52.3516H156.703ZM171.176 58.2578V61H162.094V58.2578H171.176ZM163.242 43.9375V61H159.727V43.9375H163.242ZM169.992 50.8867V53.5586H162.094V50.8867H169.992ZM171.164 43.9375V46.6914H162.094V43.9375H171.164ZM178.02 58.5977C178.434 58.5977 178.801 58.5195 179.121 58.3633C179.441 58.1992 179.691 57.9727 179.871 57.6836C180.059 57.3867 180.156 57.0391 180.164 56.6406H183.34C183.332 57.5312 183.094 58.3242 182.625 59.0195C182.156 59.707 181.527 60.25 180.738 60.6484C179.949 61.0391 179.066 61.2344 178.09 61.2344C177.105 61.2344 176.246 61.0703 175.512 60.7422C174.785 60.4141 174.18 59.9609 173.695 59.3828C173.211 58.7969 172.848 58.1172 172.605 57.3438C172.363 56.5625 172.242 55.7266 172.242 54.8359V54.4961C172.242 53.5977 172.363 52.7617 172.605 51.9883C172.848 51.207 173.211 50.5273 173.695 49.9492C174.18 49.3633 174.785 48.9062 175.512 48.5781C176.238 48.25 177.09 48.0859 178.066 48.0859C179.105 48.0859 180.016 48.2852 180.797 48.6836C181.586 49.082 182.203 49.6523 182.648 50.3945C183.102 51.1289 183.332 52 183.34 53.0078H180.164C180.156 52.5859 180.066 52.2031 179.895 51.8594C179.73 51.5156 179.488 51.2422 179.168 51.0391C178.855 50.8281 178.469 50.7227 178.008 50.7227C177.516 50.7227 177.113 50.8281 176.801 51.0391C176.488 51.2422 176.246 51.5234 176.074 51.8828C175.902 52.2344 175.781 52.6367 175.711 53.0898C175.648 53.5352 175.617 54.0039 175.617 54.4961V54.8359C175.617 55.3281 175.648 55.8008 175.711 56.2539C175.773 56.707 175.891 57.1094 176.062 57.4609C176.242 57.8125 176.488 58.0898 176.801 58.293C177.113 58.4961 177.52 58.5977 178.02 58.5977ZM188.59 43V61H185.215V43H188.59ZM188.109 54.2148H187.184C187.191 53.332 187.309 52.5195 187.535 51.7773C187.762 51.0273 188.086 50.3789 188.508 49.832C188.93 49.2773 189.434 48.8477 190.02 48.543C190.613 48.2383 191.27 48.0859 191.988 48.0859C192.613 48.0859 193.18 48.1758 193.688 48.3555C194.203 48.5273 194.645 48.8086 195.012 49.1992C195.387 49.582 195.676 50.0859 195.879 50.7109C196.082 51.3359 196.184 52.0938 196.184 52.9844V61H192.785V52.9609C192.785 52.3984 192.703 51.957 192.539 51.6367C192.383 51.3086 192.152 51.0781 191.848 50.9453C191.551 50.8047 191.184 50.7344 190.746 50.7344C190.262 50.7344 189.848 50.8242 189.504 51.0039C189.168 51.1836 188.898 51.4336 188.695 51.7539C188.492 52.0664 188.344 52.4336 188.25 52.8555C188.156 53.2773 188.109 53.7305 188.109 54.2148ZM198.211 54.7891V54.543C198.211 53.6133 198.344 52.7578 198.609 51.9766C198.875 51.1875 199.262 50.5039 199.77 49.9258C200.277 49.3477 200.902 48.8984 201.645 48.5781C202.387 48.25 203.238 48.0859 204.199 48.0859C205.16 48.0859 206.016 48.25 206.766 48.5781C207.516 48.8984 208.145 49.3477 208.652 49.9258C209.168 50.5039 209.559 51.1875 209.824 51.9766C210.09 52.7578 210.223 53.6133 210.223 54.543V54.7891C210.223 55.7109 210.09 56.5664 209.824 57.3555C209.559 58.1367 209.168 58.8203 208.652 59.4062C208.145 59.9844 207.52 60.4336 206.777 60.7539C206.035 61.0742 205.184 61.2344 204.223 61.2344C203.262 61.2344 202.406 61.0742 201.656 60.7539C200.914 60.4336 200.285 59.9844 199.77 59.4062C199.262 58.8203 198.875 58.1367 198.609 57.3555C198.344 56.5664 198.211 55.7109 198.211 54.7891ZM201.586 54.543V54.7891C201.586 55.3203 201.633 55.8164 201.727 56.2773C201.82 56.7383 201.969 57.1445 202.172 57.4961C202.383 57.8398 202.656 58.1094 202.992 58.3047C203.328 58.5 203.738 58.5977 204.223 58.5977C204.691 58.5977 205.094 58.5 205.43 58.3047C205.766 58.1094 206.035 57.8398 206.238 57.4961C206.441 57.1445 206.59 56.7383 206.684 56.2773C206.785 55.8164 206.836 55.3203 206.836 54.7891V54.543C206.836 54.0273 206.785 53.543 206.684 53.0898C206.59 52.6289 206.438 52.2227 206.227 51.8711C206.023 51.5117 205.754 51.2305 205.418 51.0273C205.082 50.8242 204.676 50.7227 204.199 50.7227C203.723 50.7227 203.316 50.8242 202.98 51.0273C202.652 51.2305 202.383 51.5117 202.172 51.8711C201.969 52.2227 201.82 52.6289 201.727 53.0898C201.633 53.543 201.586 54.0273 201.586 54.543Z" fill="#888888"/>
<path d="M118.594 98.4219V104.75H101.086V98.4219H118.594ZM103.828 84.875V119H95.6016V84.875H103.828ZM124.125 84.875V119H115.922V84.875H124.125ZM127.992 106.578V106.086C127.992 104.227 128.258 102.516 128.789 100.953C129.32 99.375 130.102 98.0078 131.133 96.8516C132.164 95.6953 133.438 94.7969 134.953 94.1562C136.469 93.5 138.219 93.1719 140.203 93.1719C142.203 93.1719 143.961 93.5 145.477 94.1562C147.008 94.7969 148.289 95.6953 149.32 96.8516C150.352 98.0078 151.133 99.375 151.664 100.953C152.195 102.516 152.461 104.227 152.461 106.086V106.578C152.461 108.422 152.195 110.133 151.664 111.711C151.133 113.273 150.352 114.641 149.32 115.812C148.289 116.969 147.016 117.867 145.5 118.508C143.984 119.148 142.234 119.469 140.25 119.469C138.266 119.469 136.508 119.148 134.977 118.508C133.445 117.867 132.164 116.969 131.133 115.812C130.102 114.641 129.32 113.273 128.789 111.711C128.258 110.133 127.992 108.422 127.992 106.578ZM135.891 106.086V106.578C135.891 107.531 135.961 108.422 136.102 109.25C136.242 110.078 136.477 110.805 136.805 111.43C137.133 112.039 137.578 112.516 138.141 112.859C138.703 113.203 139.406 113.375 140.25 113.375C141.078 113.375 141.766 113.203 142.312 112.859C142.875 112.516 143.32 112.039 143.648 111.43C143.977 110.805 144.211 110.078 144.352 109.25C144.492 108.422 144.562 107.531 144.562 106.578V106.086C144.562 105.164 144.492 104.297 144.352 103.484C144.211 102.656 143.977 101.93 143.648 101.305C143.32 100.664 142.875 100.164 142.312 99.8047C141.75 99.4453 141.047 99.2656 140.203 99.2656C139.375 99.2656 138.68 99.4453 138.117 99.8047C137.57 100.164 137.133 100.664 136.805 101.305C136.477 101.93 136.242 102.656 136.102 103.484C135.961 104.297 135.891 105.164 135.891 106.086ZM163.688 111.453L168.375 93.6406H173.32L171.562 102.57L166.922 119H162.961L163.688 111.453ZM161.836 93.6406L164.742 111.312L165.07 119H160.266L154.266 93.6406H161.836ZM177.492 110.938L180.422 93.6406H187.992L182.039 119H177.234L177.492 110.938ZM173.883 93.6406L178.617 111.406L179.344 119H175.336L170.789 102.617L169.102 93.6406H173.883ZM218.297 84.875V119H210.07V84.875H218.297ZM228.562 84.875V91.2266H200.039V84.875H228.562ZM225.773 106.578V106.086C225.773 104.227 226.039 102.516 226.57 100.953C227.102 99.375 227.883 98.0078 228.914 96.8516C229.945 95.6953 231.219 94.7969 232.734 94.1562C234.25 93.5 236 93.1719 237.984 93.1719C239.984 93.1719 241.742 93.5 243.258 94.1562C244.789 94.7969 246.07 95.6953 247.102 96.8516C248.133 98.0078 248.914 99.375 249.445 100.953C249.977 102.516 250.242 104.227 250.242 106.086V106.578C250.242 108.422 249.977 110.133 249.445 111.711C248.914 113.273 248.133 114.641 247.102 115.812C246.07 116.969 244.797 117.867 243.281 118.508C241.766 119.148 240.016 119.469 238.031 119.469C236.047 119.469 234.289 119.148 232.758 118.508C231.227 117.867 229.945 116.969 228.914 115.812C227.883 114.641 227.102 113.273 226.57 111.711C226.039 110.133 225.773 108.422 225.773 106.578ZM233.672 106.086V106.578C233.672 107.531 233.742 108.422 233.883 109.25C234.023 110.078 234.258 110.805 234.586 111.43C234.914 112.039 235.359 112.516 235.922 112.859C236.484 113.203 237.188 113.375 238.031 113.375C238.859 113.375 239.547 113.203 240.094 112.859C240.656 112.516 241.102 112.039 241.43 111.43C241.758 110.805 241.992 110.078 242.133 109.25C242.273 108.422 242.344 107.531 242.344 106.578V106.086C242.344 105.164 242.273 104.297 242.133 103.484C241.992 102.656 241.758 101.93 241.43 101.305C241.102 100.664 240.656 100.164 240.094 99.8047C239.531 99.4453 238.828 99.2656 237.984 99.2656C237.156 99.2656 236.461 99.4453 235.898 99.8047C235.352 100.164 234.914 100.664 234.586 101.305C234.258 101.93 234.023 102.656 233.883 103.484C233.742 104.297 233.672 105.164 233.672 106.086ZM266.086 84.875H279.516C282.141 84.875 284.422 85.2656 286.359 86.0469C288.297 86.8281 289.789 87.9844 290.836 89.5156C291.898 91.0469 292.43 92.9375 292.43 95.1875C292.43 97.1406 292.125 98.7734 291.516 100.086C290.906 101.398 290.055 102.484 288.961 103.344C287.883 104.188 286.625 104.883 285.188 105.43L282.492 106.953H271.219L271.172 100.602H279.516C280.562 100.602 281.43 100.414 282.117 100.039C282.805 99.6641 283.32 99.1328 283.664 98.4453C284.023 97.7422 284.203 96.9062 284.203 95.9375C284.203 94.9531 284.023 94.1094 283.664 93.4062C283.305 92.7031 282.773 92.1641 282.07 91.7891C281.383 91.4141 280.531 91.2266 279.516 91.2266H274.312V119H266.086V84.875ZM284.766 119L277.219 103.906L285.938 103.859L293.578 118.648V119H284.766ZM311.836 112.836V93.6406H319.758V119H312.352L311.836 112.836ZM312.586 107.68L314.648 107.633C314.648 109.336 314.445 110.914 314.039 112.367C313.633 113.805 313.031 115.055 312.234 116.117C311.453 117.18 310.484 118.008 309.328 118.602C308.188 119.18 306.867 119.469 305.367 119.469C304.117 119.469 302.969 119.297 301.922 118.953C300.891 118.594 300 118.039 299.25 117.289C298.5 116.523 297.914 115.547 297.492 114.359C297.086 113.156 296.883 111.719 296.883 110.047V93.6406H304.781V110.094C304.781 110.656 304.852 111.141 304.992 111.547C305.133 111.953 305.336 112.297 305.602 112.578C305.867 112.844 306.195 113.047 306.586 113.188C306.992 113.312 307.453 113.375 307.969 113.375C309.156 113.375 310.086 113.125 310.758 112.625C311.43 112.125 311.898 111.445 312.164 110.586C312.445 109.727 312.586 108.758 312.586 107.68ZM331.875 99.0547V119H323.977V93.6406H331.383L331.875 99.0547ZM330.938 105.453L329.086 105.5C329.086 103.562 329.32 101.836 329.789 100.32C330.258 98.7891 330.922 97.4922 331.781 96.4297C332.641 95.3672 333.664 94.5625 334.852 94.0156C336.055 93.4531 337.391 93.1719 338.859 93.1719C340.031 93.1719 341.102 93.3438 342.07 93.6875C343.055 94.0312 343.898 94.5859 344.602 95.3516C345.32 96.1172 345.867 97.1328 346.242 98.3984C346.633 99.6484 346.828 101.195 346.828 103.039V119H338.883V103.016C338.883 102 338.742 101.227 338.461 100.695C338.18 100.148 337.773 99.7734 337.242 99.5703C336.711 99.3672 336.062 99.2656 335.297 99.2656C334.484 99.2656 333.797 99.4219 333.234 99.7344C332.672 100.047 332.219 100.484 331.875 101.047C331.547 101.594 331.305 102.242 331.148 102.992C331.008 103.742 330.938 104.562 330.938 105.453ZM363.773 108.195H357.047C357.047 106.82 357.141 105.609 357.328 104.562C357.531 103.5 357.875 102.547 358.359 101.703C358.844 100.859 359.5 100.078 360.328 99.3594C361.062 98.75 361.695 98.1641 362.227 97.6016C362.758 97.0391 363.164 96.4688 363.445 95.8906C363.727 95.3125 363.867 94.6953 363.867 94.0391C363.867 93.2266 363.75 92.5625 363.516 92.0469C363.297 91.5312 362.961 91.1484 362.508 90.8984C362.07 90.6328 361.516 90.5 360.844 90.5C360.297 90.5 359.781 90.6328 359.297 90.8984C358.828 91.1641 358.445 91.5781 358.148 92.1406C357.852 92.6875 357.688 93.4141 357.656 94.3203H349.711C349.758 91.9922 350.273 90.1016 351.258 88.6484C352.258 87.1797 353.586 86.1094 355.242 85.4375C356.914 84.75 358.781 84.4062 360.844 84.4062C363.125 84.4062 365.086 84.7578 366.727 85.4609C368.367 86.1641 369.625 87.2109 370.5 88.6016C371.375 89.9766 371.812 91.6719 371.812 93.6875C371.812 95.0312 371.555 96.2031 371.039 97.2031C370.539 98.1875 369.859 99.1094 369 99.9688C368.156 100.812 367.211 101.719 366.164 102.688C365.258 103.484 364.641 104.297 364.312 105.125C363.984 105.938 363.805 106.961 363.773 108.195ZM356.086 115.32C356.086 114.195 356.492 113.258 357.305 112.508C358.117 111.742 359.172 111.359 360.469 111.359C361.766 111.359 362.82 111.742 363.633 112.508C364.445 113.258 364.852 114.195 364.852 115.32C364.852 116.445 364.445 117.391 363.633 118.156C362.82 118.906 361.766 119.281 360.469 119.281C359.172 119.281 358.117 118.906 357.305 118.156C356.492 117.391 356.086 116.445 356.086 115.32Z" fill="black"/>
<path d="M1134 0H1348C1356.28 0 1363 6.71573 1363 15V148C1363 156.284 1356.28 163 1348 163H1134V0Z" fill="#73C405"/>
<path d="M1260.62 78.8847C1263.81 78.8847 1266.93 79.805 1269.59 81.5293C1272.25 83.2536 1274.32 85.7044 1275.54 88.5718C1276.76 91.4391 1277.08 94.5943 1276.46 97.6383C1275.84 100.682 1274.3 103.478 1272.04 105.673C1269.78 107.868 1266.9 109.362 1263.77 109.968C1260.63 110.573 1257.39 110.262 1254.43 109.075C1251.48 107.887 1248.96 105.876 1247.18 103.295C1245.41 100.714 1244.46 97.6806 1244.46 94.5769C1244.46 90.4151 1246.16 86.4237 1249.19 83.4808C1252.22 80.538 1256.33 78.8847 1260.62 78.8847ZM1260.62 73.6539C1256.36 73.6539 1252.19 74.881 1248.65 77.1801C1245.11 79.4791 1242.35 82.7469 1240.72 86.57C1239.09 90.3932 1238.66 94.6001 1239.49 98.6588C1240.32 102.717 1242.37 106.446 1245.39 109.372C1248.4 112.298 1252.24 114.291 1256.41 115.098C1260.59 115.905 1264.92 115.491 1268.86 113.907C1272.79 112.324 1276.16 109.642 1278.52 106.201C1280.89 102.76 1282.15 98.7151 1282.15 94.5769C1282.15 89.0278 1279.88 83.706 1275.85 79.7821C1271.81 75.8583 1266.33 73.6539 1260.62 73.6539Z" fill="white"/>
<path d="M1274.08 47.5H1220.23C1218.8 47.5 1217.43 48.0511 1216.42 49.0321C1215.41 50.013 1214.85 51.3435 1214.85 52.7307V105.038C1214.85 106.426 1215.41 107.756 1216.42 108.737C1217.43 109.718 1218.8 110.269 1220.23 110.269H1231V105.038H1220.23V68.423H1279.46V52.7307C1279.46 51.3435 1278.89 50.013 1277.88 49.0321C1276.87 48.0511 1275.5 47.5 1274.08 47.5ZM1220.23 63.1922V52.7307H1274.08V63.1922H1220.23Z" fill="white"/>
<path d="M1255.23 86.731V102.423L1268.69 94.5771L1255.23 86.731Z" fill="white"/>
</svg>
